<svg xmlns="http://www.w3.org/2000/svg" width="280.083" height="140" viewBox="0 0 280.083 140"><defs><style>.a,.c{fill:#cea46d;}.b{fill:#631856;}.b,.c{fill-rule:evenodd;}.d{fill:#e27f26;}</style></defs><g transform="translate(-317.854 -33.596)"><path class="a" d="M582.376,147.541v-.874a2.743,2.743,0,0,0,1.561-.575,1.865,1.865,0,0,0,.726-1.521v-2.508a9.488,9.488,0,0,0-2.287.241v-.636a15.18,15.18,0,0,1,2.287-.187v-2.5a1.293,1.293,0,0,0-.517-1.128,2.7,2.7,0,0,0-1.575-.363c-.065,0-.13,0-.2,0v-.472c.261-.024.525-.036.805-.036a4.571,4.571,0,0,1,2.738.617,2.638,2.638,0,0,1,.792,2.2v5.8a1.83,1.83,0,0,0,.118.806.471.471,0,0,0,.412.181.811.811,0,0,0,.592-.268,1.36,1.36,0,0,0,.345-.666h.429a2.182,2.182,0,0,1-.677,1.467,2.148,2.148,0,0,1-1.5.558,1.611,1.611,0,0,1-1.2-.431,1.992,1.992,0,0,1-.5-1.286,3.48,3.48,0,0,1-1.527,1.27,5.844,5.844,0,0,1-.824.3m7.64-.152v-3.425h.633a4.318,4.318,0,0,0,1.35,2.268,3.477,3.477,0,0,0,2.3.806,2.783,2.783,0,0,0,1.842-.582,1.907,1.907,0,0,0,.7-1.532c0-.72-.856-1.244-2.584-1.57-.332-.071-.6-.129-.792-.174a5.829,5.829,0,0,1-2.7-1.082,2.487,2.487,0,0,1-.723-1.942,2.963,2.963,0,0,1,.948-2.285,3.453,3.453,0,0,1,2.451-.882,4.581,4.581,0,0,1,1.512.226,2.475,2.475,0,0,1,1.045.656l.537-.69h.36v2.949h-.558a3.543,3.543,0,0,0-1.013-1.943,2.7,2.7,0,0,0-1.883-.669,2.659,2.659,0,0,0-1.707.521,1.644,1.644,0,0,0-.657,1.355q0,1.059,3.026,1.6l.782.147a4.168,4.168,0,0,1,2.292,1.035,2.735,2.735,0,0,1,.759,2.012,3.3,3.3,0,0,1-1.051,2.572,4.055,4.055,0,0,1-2.834.951,3.894,3.894,0,0,1-1.549-.312,4.2,4.2,0,0,1-1.346-.921l-.608.907Zm-7.64-10.364v.472a3.314,3.314,0,0,0-1.29.3q-.641.294-.641.61a1.728,1.728,0,0,0,.372.409,1.1,1.1,0,0,1,.368.811,1.128,1.128,0,0,1-.3.812,1.012,1.012,0,0,1-.762.306,1.051,1.051,0,0,1-.82-.332,1.341,1.341,0,0,1-.3-.914,2.093,2.093,0,0,1,1.169-1.8,5.168,5.168,0,0,1,2.2-.673m0,4.643v.636a4.7,4.7,0,0,0-1.111.432,2.115,2.115,0,0,0-1.17,1.944,1.876,1.876,0,0,0,1.994,2c.1,0,.2-.007.287-.009v.874a5.448,5.448,0,0,1-1.376.174,3.3,3.3,0,0,1-2.137-.645,2.153,2.153,0,0,1-.781-1.731,3.135,3.135,0,0,1,1.749-2.809,7.49,7.49,0,0,1,2.545-.862m-12.25,6.022v-.566a2.979,2.979,0,0,0,1.935-.89,2.653,2.653,0,0,0,.934-1.958v-3.563a3.036,3.036,0,0,0-.923-2.18,3,3,0,0,0-1.946-.925v-.576a3.511,3.511,0,0,1,1.558.486,3.285,3.285,0,0,1,1.284,1.467v-8.538H571.24v-.532h.43c.554,0,1.108-.022,1.67-.066s1.128-.1,1.708-.194v17.124h1.436v.61c-.793,0-1.465.021-2.007.067a12.5,12.5,0,0,0-1.455.193v-1.883a3.836,3.836,0,0,1-1.411,1.438,3.771,3.771,0,0,1-1.485.486m0-10.658v.576c-.078-.007-.156-.009-.232-.009a2.163,2.163,0,0,0-2.038,1.061,7.936,7.936,0,0,0-.6,3.625,8.024,8.024,0,0,0,.628,3.756,2.205,2.205,0,0,0,2.081,1.087c.057,0,.108,0,.162,0v.566a4.543,4.543,0,0,1-3.9-1.529,5.49,5.49,0,0,1-1.4-3.824,5.4,5.4,0,0,1,1.4-3.789,4.517,4.517,0,0,1,3.468-1.536c.148,0,.289.008.43.02m-19.631,10.509v-.874a2.774,2.774,0,0,0,1.562-.575,1.861,1.861,0,0,0,.719-1.521v-2.508a9.469,9.469,0,0,0-2.281.241v-.636a15.119,15.119,0,0,1,2.281-.187v-2.5a1.281,1.281,0,0,0-.512-1.128,2.7,2.7,0,0,0-1.577-.363c-.065,0-.129,0-.192,0v-.472q.386-.036.8-.036a4.561,4.561,0,0,1,2.737.617,2.629,2.629,0,0,1,.795,2.2v5.8a1.815,1.815,0,0,0,.118.806.468.468,0,0,0,.414.181.8.8,0,0,0,.585-.268,1.337,1.337,0,0,0,.352-.666h.427a2.162,2.162,0,0,1-.684,1.467,2.121,2.121,0,0,1-1.5.558,1.592,1.592,0,0,1-1.194-.431,1.953,1.953,0,0,1-.51-1.286,3.48,3.48,0,0,1-1.527,1.27,5.991,5.991,0,0,1-.821.3m7.079-.152v-.61h1.941V130.447H557.52v-.521c.7-.015,1.4-.043,2.079-.089s1.365-.1,2.039-.182v17.124h2v.61Zm-7.079-10.364v.472a3.315,3.315,0,0,0-1.292.3c-.428.2-.645.4-.645.61a1.958,1.958,0,0,0,.374.409,1.1,1.1,0,0,1,.368.811,1.142,1.142,0,0,1-.295.812,1.032,1.032,0,0,1-.767.306,1.051,1.051,0,0,1-.821-.332,1.354,1.354,0,0,1-.295-.914,2.087,2.087,0,0,1,1.167-1.8,5.173,5.173,0,0,1,2.206-.673m0,4.643v.636a4.491,4.491,0,0,0-1.108.432,2.113,2.113,0,0,0-1.177,1.944,1.884,1.884,0,0,0,2,2c.095,0,.192-.007.285-.009v.874a5.5,5.5,0,0,1-1.375.174,3.277,3.277,0,0,1-2.136-.645,2.149,2.149,0,0,1-.783-1.731,3.145,3.145,0,0,1,1.739-2.809,7.549,7.549,0,0,1,2.555-.862m-11.226,11.547v-.65c.089,0,.186,0,.285,0a5.632,5.632,0,0,0,3.188-.795,2.471,2.471,0,0,0,1.179-2.16,1.724,1.724,0,0,0-.765-1.6,5.318,5.318,0,0,0-2.66-.473h-1.227v-1.762h2.113a3.659,3.659,0,0,1,2.566.784,3.108,3.108,0,0,1,.839,2.385,3.755,3.755,0,0,1-1.428,3.187,6.868,6.868,0,0,1-4.09,1.077m0-9.517v-.576a1.64,1.64,0,0,0,1.436-.547,6.6,6.6,0,0,0-.008-4.443,1.514,1.514,0,0,0-1.394-.614h-.034v-.529h.034a4.522,4.522,0,0,1,1.81.337,3.325,3.325,0,0,1,1.334,1,3.117,3.117,0,0,1,.768-1.041,1.467,1.467,0,0,1,.936-.294,1,1,0,0,1,.717.269.879.879,0,0,1,.3.664,1.021,1.021,0,0,1-.182.643.63.63,0,0,1-.509.229.809.809,0,0,1-.675-.344c-.173-.233-.284-.346-.339-.346a.524.524,0,0,0-.379.254.812.812,0,0,0-.2.5c0,.008.043.182.141.538a4.08,4.08,0,0,1,.14,1.041,3.042,3.042,0,0,1-.487,1.646,3.292,3.292,0,0,1-1.31,1.187,6.26,6.26,0,0,1-2.1.427m0-6.709v.529a1.57,1.57,0,0,0-1.384.631,3.884,3.884,0,0,0-.436,2.138,4.353,4.353,0,0,0,.411,2.222,1.541,1.541,0,0,0,1.393.613h.016v.576l-.235.01c-.282.01-.5.019-.651.032a6.206,6.206,0,0,0-2.14.472,1.038,1.038,0,0,0-.688.941.49.49,0,0,0,.331.493,4.6,4.6,0,0,0,1.456.136h1.927v1.762h-.544a5.02,5.02,0,0,0-1.9,1.266,2.359,2.359,0,0,0-.65,1.6,1.783,1.783,0,0,0,.879,1.589,4.32,4.32,0,0,0,2.215.566v.65H539.1a6.749,6.749,0,0,1-3.43-.747,2.257,2.257,0,0,1-1.255-1.995,2.152,2.152,0,0,1,.793-1.663,6.5,6.5,0,0,1,2.4-1.219,4.4,4.4,0,0,1-2.168-.63,1.585,1.585,0,0,1-.808-1.353,1.822,1.822,0,0,1,.689-1.495,4.039,4.039,0,0,1,2.048-.737,4.208,4.208,0,0,1-1.55-1.25,2.892,2.892,0,0,1-.473-1.688,3.136,3.136,0,0,1,1.105-2.475,4.117,4.117,0,0,1,2.817-.974M514.04,147.541v-.874a2.765,2.765,0,0,0,1.561-.575,1.858,1.858,0,0,0,.721-1.521v-2.508a9.438,9.438,0,0,0-2.282.241v-.636a15.078,15.078,0,0,1,2.282-.187v-2.5a1.3,1.3,0,0,0-.51-1.128,2.71,2.71,0,0,0-1.577-.363c-.07,0-.133,0-.2,0v-.472c.255-.024.52-.036.8-.036a4.581,4.581,0,0,1,2.739.617,2.638,2.638,0,0,1,.794,2.2v5.8a1.931,1.931,0,0,0,.113.806.48.48,0,0,0,.421.181.787.787,0,0,0,.582-.268,1.315,1.315,0,0,0,.352-.666h.431a2.189,2.189,0,0,1-.685,1.467,2.133,2.133,0,0,1-1.5.558,1.6,1.6,0,0,1-1.2-.431,1.957,1.957,0,0,1-.507-1.286,3.481,3.481,0,0,1-1.531,1.27,5.721,5.721,0,0,1-.818.3m7.263-.152v-.61h1.411v-8.985h-1.441v-.557h.478c.542,0,1.061-.022,1.562-.063s.972-.109,1.414-.185l.008,2.957a4.9,4.9,0,0,1,1.571-2.208,3.8,3.8,0,0,1,2.368-.749,3,3,0,0,1,2.164.743,2.7,2.7,0,0,1,.784,2.074v6.973h1.384v.61h-4.917v-.61H529.6v-7.054a2.25,2.25,0,0,0-.407-1.476,1.528,1.528,0,0,0-1.243-.483,2.708,2.708,0,0,0-2.219,1.286,5.169,5.169,0,0,0-.937,3.132v4.6h1.4v.61Zm-7.263-10.364v.472a3.348,3.348,0,0,0-1.295.3c-.427.2-.639.4-.639.61,0,.035.119.171.372.409a1.1,1.1,0,0,1,.365.811,1.158,1.158,0,0,1-.292.812,1.147,1.147,0,0,1-1.587-.026,1.311,1.311,0,0,1-.3-.914,2.09,2.09,0,0,1,1.17-1.8,5.134,5.134,0,0,1,2.2-.673m0,4.643v.636a4.54,4.54,0,0,0-1.11.432,2.11,2.11,0,0,0-1.176,1.944,1.881,1.881,0,0,0,2,2c.1,0,.189-.007.286-.009v.874a5.5,5.5,0,0,1-1.376.174,3.272,3.272,0,0,1-2.134-.645,2.141,2.141,0,0,1-.785-1.731,3.144,3.144,0,0,1,1.744-2.809,7.54,7.54,0,0,1,2.551-.862m-38.384,6.022v-.566a2.97,2.97,0,0,0,1.935-.89,2.663,2.663,0,0,0,.936-1.958v-3.563a3.038,3.038,0,0,0-.928-2.18,2.985,2.985,0,0,0-1.943-.925v-.576a3.528,3.528,0,0,1,1.559.486,3.273,3.273,0,0,1,1.284,1.467v-8.538H476.77v-.532h.432c.554,0,1.108-.022,1.668-.066s1.125-.1,1.707-.194v17.124h1.438v.61c-.8,0-1.469.021-2.007.067a12.8,12.8,0,0,0-1.457.193v-1.883a3.767,3.767,0,0,1-2.895,1.924m15.017-.3v-.61h1.387v-8.985h-1.415v-.557c.594,0,1.177-.022,1.762-.063s1.16-.109,1.717-.185l.017,2.558a4.939,4.939,0,0,1,1.473-1.933,3.448,3.448,0,0,1,2.05-.625,2.978,2.978,0,0,1,2.063.672,2.639,2.639,0,0,1,.806,1.9,4.4,4.4,0,0,1,1.417-1.909,3.481,3.481,0,0,1,2.132-.659,2.705,2.705,0,0,1,2.146.812,3.531,3.531,0,0,1,.727,2.408v6.57h1.321v.61h-4.9v-.61H504.9v-7.505a1.733,1.733,0,0,0-.338-1.17,1.266,1.266,0,0,0-1.013-.389,2.664,2.664,0,0,0-2.135,1.216,4.634,4.634,0,0,0-.92,2.849v5h1.333v.61H497v-.61h1.46v-7.505a1.736,1.736,0,0,0-.335-1.2,1.429,1.429,0,0,0-1.1-.363,2.528,2.528,0,0,0-2.084,1.4,6.093,6.093,0,0,0-.9,3.377v4.287h1.366v.61Zm-15.017-10.357v.576c-.077-.007-.152-.009-.231-.009a2.154,2.154,0,0,0-2.034,1.061,7.835,7.835,0,0,0-.6,3.625,8.013,8.013,0,0,0,.627,3.756,2.2,2.2,0,0,0,2.084,1.087c.053,0,.105,0,.158,0v.566a4.54,4.54,0,0,1-3.9-1.529,5.478,5.478,0,0,1-1.4-3.824,5.384,5.384,0,0,1,1.4-3.789,4.515,4.515,0,0,1,3.467-1.536c.151,0,.29.008.429.02m-25.722,10.509v-.874a2.739,2.739,0,0,0,1.557-.575,1.859,1.859,0,0,0,.726-1.521v-2.508a9.429,9.429,0,0,0-2.283.241v-.636a15.125,15.125,0,0,1,2.283-.187v-2.5a1.292,1.292,0,0,0-.515-1.128,2.7,2.7,0,0,0-1.576-.363c-.066,0-.131,0-.192,0v-.472c.257-.024.523-.036.8-.036a4.577,4.577,0,0,1,2.738.617,2.632,2.632,0,0,1,.793,2.2v5.8a1.864,1.864,0,0,0,.117.806.472.472,0,0,0,.413.181.8.8,0,0,0,.586-.268,1.322,1.322,0,0,0,.352-.666h.428a2.16,2.16,0,0,1-.686,1.467,2.117,2.117,0,0,1-1.495.558,1.582,1.582,0,0,1-1.191-.431,1.938,1.938,0,0,1-.509-1.286,3.489,3.489,0,0,1-1.528,1.27,5.716,5.716,0,0,1-.821.3m7.26-.152v-.61h1.414v-8.985h-1.444v-.557h.482c.542,0,1.057-.022,1.561-.063s.975-.109,1.413-.185l.011,2.957a4.882,4.882,0,0,1,1.566-2.208,3.813,3.813,0,0,1,2.368-.749,3,3,0,0,1,2.166.743,2.7,2.7,0,0,1,.781,2.074v6.973H468.9v.61h-4.919v-.61h1.5v-7.054a2.275,2.275,0,0,0-.4-1.476,1.549,1.549,0,0,0-1.247-.483,2.713,2.713,0,0,0-2.223,1.286,5.165,5.165,0,0,0-.93,3.132v4.6h1.4v.61Zm-7.26-10.364v.472a3.315,3.315,0,0,0-1.292.3c-.431.2-.643.4-.643.61a1.728,1.728,0,0,0,.372.409,1.1,1.1,0,0,1,.366.811,1.129,1.129,0,0,1-.3.812,1.023,1.023,0,0,1-.764.306,1.059,1.059,0,0,1-.823-.332,1.338,1.338,0,0,1-.293-.914,2.087,2.087,0,0,1,1.167-1.8,5.155,5.155,0,0,1,2.206-.673m0,4.643v.636a4.6,4.6,0,0,0-1.114.432,2.113,2.113,0,0,0-1.171,1.944,1.875,1.875,0,0,0,2,2c.1,0,.189-.007.285-.009v.874a5.5,5.5,0,0,1-1.38.174,3.285,3.285,0,0,1-2.134-.645,2.157,2.157,0,0,1-.782-1.731,3.141,3.141,0,0,1,1.744-2.809,7.547,7.547,0,0,1,2.552-.862m-44.679,5.873v-.874a2.758,2.758,0,0,0,1.563-.575,1.86,1.86,0,0,0,.724-1.521v-2.508a9.493,9.493,0,0,0-2.287.241v-.636a15.168,15.168,0,0,1,2.287-.187v-2.5a1.3,1.3,0,0,0-.515-1.128,2.706,2.706,0,0,0-1.577-.363c-.065,0-.131,0-.2,0v-.472c.258-.024.525-.036.807-.036a4.57,4.57,0,0,1,2.736.617,2.638,2.638,0,0,1,.794,2.2v5.8a1.869,1.869,0,0,0,.116.806.472.472,0,0,0,.418.181.8.8,0,0,0,.585-.268,1.357,1.357,0,0,0,.349-.666h.428a2.173,2.173,0,0,1-.682,1.467,2.131,2.131,0,0,1-1.5.558,1.6,1.6,0,0,1-1.2-.431,1.952,1.952,0,0,1-.506-1.286,3.486,3.486,0,0,1-1.529,1.27,5.786,5.786,0,0,1-.823.3m7.028-.152v-.61h1.754v-8.985h-1.7v-.557q1.023,0,1.975-.063c.631-.045,1.223-.1,1.78-.173v2.6a5.778,5.778,0,0,1,1.425-1.907,2.62,2.62,0,0,1,1.674-.63,1.6,1.6,0,0,1,1.129.355,1.279,1.279,0,0,1,.393,1.012,1.049,1.049,0,0,1-.309.793,1.1,1.1,0,0,1-.81.3,1.079,1.079,0,0,1-.783-.327,1.04,1.04,0,0,1-.332-.768,1.469,1.469,0,0,1,.024-.245,1.287,1.287,0,0,0,.026-.182.275.275,0,0,0-.026-.145.089.089,0,0,0-.076-.037c-.477,0-.975.413-1.5,1.243a4.779,4.779,0,0,0-.78,2.561v5.152h1.931v.61Zm18.165-3.2h.637a4.529,4.529,0,0,1-1.6,2.587,4.7,4.7,0,0,1-2.953.907,4.937,4.937,0,0,1-3.684-1.465,5.1,5.1,0,0,1-1.442-3.729,5.332,5.332,0,0,1,1.547-3.917,5.262,5.262,0,0,1,3.893-1.563,4.737,4.737,0,0,1,2.838.8,2.383,2.383,0,0,1,1.111,1.991,1.236,1.236,0,0,1-1.31,1.312,1.1,1.1,0,0,1-.818-.336,1.16,1.16,0,0,1-.325-.836,1.407,1.407,0,0,1,.389-.917,1.619,1.619,0,0,0,.391-.573c0-.254-.218-.47-.651-.655a3.935,3.935,0,0,0-1.583-.283,2.567,2.567,0,0,0-2.331,1.142,7,7,0,0,0-.737,3.677,7.4,7.4,0,0,0,.675,3.649,2.377,2.377,0,0,0,2.2,1.1,3.805,3.805,0,0,0,2.37-.762,3.961,3.961,0,0,0,1.379-2.135m1.859,3.2v-.61h1.386V130.447h-1.365v-.521c.572-.015,1.14-.043,1.7-.089s1.141-.1,1.726-.182v10.2a4.945,4.945,0,0,1,1.579-2.164,3.822,3.822,0,0,1,2.344-.735,3,3,0,0,1,2.166.755,2.771,2.771,0,0,1,.781,2.091v6.973h1.378v.61h-4.921v-.61H440.6v-7.054a2.257,2.257,0,0,0-.4-1.476,1.539,1.539,0,0,0-1.247-.483,2.756,2.756,0,0,0-2.231,1.315,5.06,5.06,0,0,0-.965,3.1v4.6h1.386v.61Zm-27.052-10.364v.472a3.327,3.327,0,0,0-1.29.3q-.641.294-.641.61a1.708,1.708,0,0,0,.371.409,1.1,1.1,0,0,1,.369.811,1.136,1.136,0,0,1-.3.812,1.019,1.019,0,0,1-.766.306,1.048,1.048,0,0,1-.818-.332,1.341,1.341,0,0,1-.3-.914,2.1,2.1,0,0,1,1.169-1.8,5.186,5.186,0,0,1,2.206-.673m0,4.643v.636a4.548,4.548,0,0,0-1.107.432,2.115,2.115,0,0,0-1.177,1.944,1.877,1.877,0,0,0,2,2c.091,0,.191-.007.281-.009v.874a5.454,5.454,0,0,1-1.376.174,3.277,3.277,0,0,1-2.135-.645,2.158,2.158,0,0,1-.783-1.731,3.139,3.139,0,0,1,1.748-2.809,7.458,7.458,0,0,1,2.546-.862m-30.625,5.873v-.874a2.768,2.768,0,0,0,1.566-.575,1.869,1.869,0,0,0,.718-1.521v-2.508a9.507,9.507,0,0,0-2.284.241v-.636a15.216,15.216,0,0,1,2.284-.187v-2.5a1.3,1.3,0,0,0-.509-1.128,2.719,2.719,0,0,0-1.579-.363c-.066,0-.131,0-.2,0v-.472c.258-.024.525-.036.8-.036a4.584,4.584,0,0,1,2.741.617,2.647,2.647,0,0,1,.792,2.2v5.8a1.914,1.914,0,0,0,.113.806.479.479,0,0,0,.417.181.8.8,0,0,0,.586-.268,1.3,1.3,0,0,0,.348-.666h.432a2.187,2.187,0,0,1-.683,1.467,2.127,2.127,0,0,1-1.495.558,1.6,1.6,0,0,1-1.2-.431,1.961,1.961,0,0,1-.5-1.286,3.509,3.509,0,0,1-1.529,1.27,5.648,5.648,0,0,1-.826.3m7.264-.152v-.61h1.386v-8.985h-1.411v-.557c.585,0,1.173-.022,1.756-.063s1.156-.109,1.719-.185l.015,2.558a4.877,4.877,0,0,1,1.475-1.933,3.442,3.442,0,0,1,2.05-.625,3,3,0,0,1,2.063.672,2.666,2.666,0,0,1,.809,1.9,4.284,4.284,0,0,1,1.417-1.909,3.46,3.46,0,0,1,2.129-.659,2.717,2.717,0,0,1,2.146.812,3.525,3.525,0,0,1,.72,2.408v6.57h1.325v.61h-4.9v-.61h1.525v-7.505a1.749,1.749,0,0,0-.338-1.17,1.289,1.289,0,0,0-1.017-.389,2.663,2.663,0,0,0-2.134,1.216,4.6,4.6,0,0,0-.926,2.849v5h1.339v.61h-4.819v-.61h1.453v-7.505a1.757,1.757,0,0,0-.332-1.2,1.42,1.42,0,0,0-1.092-.363,2.528,2.528,0,0,0-2.087,1.4,6.119,6.119,0,0,0-.9,3.377v4.287h1.366v.61Zm-55-3.2h.631a4.527,4.527,0,0,1-1.593,2.587,4.707,4.707,0,0,1-2.953.907,4.938,4.938,0,0,1-3.684-1.465,5.1,5.1,0,0,1-1.441-3.729,5.341,5.341,0,0,1,1.543-3.917,5.276,5.276,0,0,1,3.9-1.563,4.752,4.752,0,0,1,2.84.8,2.384,2.384,0,0,1,1.11,1.991,1.28,1.28,0,0,1-.357.954,1.3,1.3,0,0,1-.954.358,1.1,1.1,0,0,1-.821-.336,1.162,1.162,0,0,1-.322-.836,1.389,1.389,0,0,1,.39-.917,1.579,1.579,0,0,0,.387-.573c0-.254-.217-.47-.651-.655a3.9,3.9,0,0,0-1.581-.283A2.569,2.569,0,0,0,321,138.66a6.994,6.994,0,0,0-.737,3.677,7.351,7.351,0,0,0,.677,3.649,2.38,2.38,0,0,0,2.2,1.1,3.8,3.8,0,0,0,2.367-.762,3.975,3.975,0,0,0,1.385-2.135m47.736-7.167v.472a3.3,3.3,0,0,0-1.287.3c-.432.2-.643.4-.643.61,0,.035.117.171.373.409a1.1,1.1,0,0,1,.366.811,1.126,1.126,0,0,1-.3.812,1.019,1.019,0,0,1-.766.306,1.05,1.05,0,0,1-.819-.332,1.341,1.341,0,0,1-.3-.914,2.094,2.094,0,0,1,1.173-1.8,5.159,5.159,0,0,1,2.2-.673m0,4.643v.636a4.547,4.547,0,0,0-1.107.432,2.108,2.108,0,0,0-1.176,1.944,1.881,1.881,0,0,0,2,2c.1,0,.192-.007.281-.009v.874a5.46,5.46,0,0,1-1.373.174,3.288,3.288,0,0,1-2.137-.645,2.148,2.148,0,0,1-.782-1.731,3.139,3.139,0,0,1,1.744-2.809,7.53,7.53,0,0,1,2.548-.862M333.3,147.332l-3.907-9.538h-1.247v-.557h5.074v.557h-1.677l2.818,6.777,2.611-6.777h-1.715v-.557h3.728v.557h-1.325l-4.762,12.535a7.126,7.126,0,0,1-1.193,2.2,1.889,1.889,0,0,1-1.446.682,1.479,1.479,0,0,1-1.013-.359,1.1,1.1,0,0,1-.412-.879,1.074,1.074,0,0,1,.29-.756,1,1,0,0,1,.75-.307.977.977,0,0,1,.856.477c.215.327.363.488.445.488.124,0,.276-.141.447-.419a7.432,7.432,0,0,0,.585-1.261Zm6.7.057v-.61h1.759v-8.985h-1.7v-.557c.677,0,1.341-.022,1.974-.063s1.224-.1,1.776-.173v2.6a5.864,5.864,0,0,1,1.427-1.907,2.639,2.639,0,0,1,1.676-.63,1.6,1.6,0,0,1,1.13.355,1.3,1.3,0,0,1,.388,1.012,1.061,1.061,0,0,1-.3.793,1.117,1.117,0,0,1-.813.3,1.085,1.085,0,0,1-.782-.327,1.031,1.031,0,0,1-.335-.768,1.53,1.53,0,0,1,.029-.245,1.817,1.817,0,0,0,.027-.182.294.294,0,0,0-.027-.145.1.1,0,0,0-.082-.037c-.472,0-.975.413-1.495,1.243a4.761,4.761,0,0,0-.786,2.561v5.152h1.935v.61Zm10.611-15.582a1.228,1.228,0,0,1,.384-.919,1.332,1.332,0,0,1,1.865,0,1.261,1.261,0,0,1,.387.919,1.276,1.276,0,0,1-.387.936,1.244,1.244,0,0,1-.927.389,1.32,1.32,0,0,1-1.322-1.325m-1.569,15.582v-.61h1.791v-8.985h-1.676v-.557h.505c.557,0,1.111-.022,1.658-.063s1.062-.109,1.55-.185v9.79h1.547v.61Zm7.074,0v-.61h1.945V130.447h-2v-.521c.7-.015,1.393-.043,2.076-.089s1.365-.1,2.037-.182v17.124h2v.61Z"/><path class="a" d="M391.251,168.563c1.034-.28,1.175-.333,1.262-.491a.775.775,0,0,0,.07-.35c0-1.333-.754-1.859-1.7-1.859a1.77,1.77,0,0,0-1.893,1.245,1.4,1.4,0,0,0-.263-.035,1.587,1.587,0,0,0-.281.035,5.061,5.061,0,0,0,.088-.859,4.152,4.152,0,0,0-.018-.473,4.677,4.677,0,0,1,2.788-.982c1.894,0,3.191.859,3.191,2.63,0,.648-.052,2.419-.052,3,0,1.718.017,2.139.613,2.139a1.212,1.212,0,0,0,.491-.14.746.746,0,0,0,0,.631,4.459,4.459,0,0,1-1.49.386,1.317,1.317,0,0,1-1.455-1.07,3.018,3.018,0,0,1-2.35,1.193,2.141,2.141,0,0,1-2.419-2.14c0-1.946,1.192-2.261,2.822-2.7Zm1.28.439c-2,.526-2.718.719-2.718,1.981,0,.929.456,1.508,1.157,1.508a1.568,1.568,0,0,0,1.561-1.666Z"/><path class="a" d="M399.334,160.919c-.122,1.964-.122,3.208-.122,5.365a3.185,3.185,0,0,1,2.735-1.438,2.767,2.767,0,0,1,2.437,1.175,3.791,3.791,0,0,1,.4,2.139c0,.4-.035,1.35-.035,1.894,0,.964.053,2.6.1,3.3a5.446,5.446,0,0,0-1.087-.105c-.385,0-.929.088-1.174.105.1-.982.192-2.455.192-3.664a10.9,10.9,0,0,0-.122-2.49,1.46,1.46,0,0,0-1.508-1.087,1.708,1.708,0,0,0-1.736,1.139,6.073,6.073,0,0,0-.21,2.052c0,2.3,0,2.472.087,4.05a7.676,7.676,0,0,0-1.1-.105,10.616,10.616,0,0,0-1.07.105c.141-2.367.141-3.156.141-6.873l-.018-3.419c0-.7-.07-1.771-.123-2.7a6.046,6.046,0,0,0,1.192.1,4.639,4.639,0,0,0,1.052-.1Z"/><path class="a" d="M408.926,169.212c0,.649,0,3.314,2.788,3.314a3.685,3.685,0,0,0,2.489-1.1l.193.123a3.068,3.068,0,0,0-.14.368l-.158.754a4.844,4.844,0,0,1-2.946.9,4.737,4.737,0,0,1-3.173-1.158,4.645,4.645,0,0,1-1.175-3.349,3.925,3.925,0,0,1,4.068-4.243,3.5,3.5,0,0,1,3.3,1.6,5.528,5.528,0,0,1,.509,2.805Zm3.734-.859c0-.859,0-2.841-1.753-2.841-1.806,0-1.911,2.175-1.946,2.841Z"/><path class="a" d="M419.674,168.563c1.035-.28,1.175-.333,1.263-.491a.789.789,0,0,0,.07-.35c0-1.333-.754-1.859-1.7-1.859a1.772,1.772,0,0,0-1.894,1.245,1.385,1.385,0,0,0-.263-.035,1.589,1.589,0,0,0-.28.035,5.058,5.058,0,0,0,.088-.859,4.145,4.145,0,0,0-.018-.473,4.677,4.677,0,0,1,2.788-.982c1.893,0,3.191.859,3.191,2.63,0,.648-.053,2.419-.053,3,0,1.718.018,2.139.614,2.139a1.221,1.221,0,0,0,.491-.14.746.746,0,0,0,0,.631,4.471,4.471,0,0,1-1.491.386,1.318,1.318,0,0,1-1.455-1.07,3.014,3.014,0,0,1-2.349,1.193,2.142,2.142,0,0,1-2.42-2.14c0-1.946,1.193-2.261,2.823-2.7Zm1.28.439c-2,.526-2.718.719-2.718,1.981,0,.929.456,1.508,1.158,1.508a1.568,1.568,0,0,0,1.56-1.666Z"/><path class="a" d="M431.685,172.14a3.233,3.233,0,0,1-2.665,1.456c-2.3,0-3.84-1.912-3.84-4.279,0-2.928,1.771-4.471,3.928-4.471A3.167,3.167,0,0,1,431.615,166a51.394,51.394,0,0,0-.21-5.646,6.481,6.481,0,0,0,1.245.1,4.377,4.377,0,0,0,1-.1c-.123,2.086-.193,4.19-.193,6.277,0,.28.035,5.663.193,6.715a5.21,5.21,0,0,0-1-.105,6.734,6.734,0,0,0-1.017.105Zm-.07-3.016c0-1.665-.421-3.348-2.1-3.348-1.736,0-2.139,1.858-2.139,3.191,0,1.35.263,3.576,2.069,3.576C430.739,172.543,431.615,171.439,431.615,169.124Z"/><path class="a" d="M444.538,164.811c2.7,0,4.4,1.526,4.4,4.384a4.4,4.4,0,0,1-8.8,0A4.111,4.111,0,0,1,444.538,164.811Zm0,8.048c1.911,0,2.21-2.192,2.21-3.682s-.3-3.665-2.21-3.665-2.209,2.21-2.209,3.665C442.329,170.667,442.627,172.859,444.538,172.859Z"/><path class="a" d="M455.3,162.234a2.509,2.509,0,0,0-1.3-.351,1.026,1.026,0,0,0-1.175,1.122,10.354,10.354,0,0,0,.491,2.069c.789,0,.894,0,1.21-.017l.649-.053a1.767,1.767,0,0,0-.071.474,1.556,1.556,0,0,0,.071.473,11.139,11.139,0,0,0-1.824-.053v.965c0,.421.035,4.979.175,6.487-.333-.035-.771-.105-1.1-.105a10.154,10.154,0,0,0-1.14.105,9.709,9.709,0,0,0,.123-1.771c.017-1.367.053-2.244.053-3.086,0-.824-.018-2.244-.036-2.6h-.561a6.711,6.711,0,0,0-.753.053,2.183,2.183,0,0,0,.052-.473c0-.123-.035-.281-.052-.474a8.7,8.7,0,0,0,1.332.07,6.357,6.357,0,0,1,.771-2.91,3.336,3.336,0,0,1,2.806-1.911,2.558,2.558,0,0,1,.526.07,2.942,2.942,0,0,0-.141.876c0,.316,0,.667.018.93Z"/><path class="a" d="M463.651,161.9a20.657,20.657,0,0,0-.123,3.173c.789,0,.894,0,1.21-.017l.649-.053a1.772,1.772,0,0,0-.053.439,2.563,2.563,0,0,0,.053.526,15.4,15.4,0,0,0-1.911-.071c0,.754-.053,2.63-.053,3.367,0,2.6.087,3.349,1.262,3.349a1.742,1.742,0,0,0,1.052-.369,2.387,2.387,0,0,0-.07.421,1.279,1.279,0,0,0,.07.4,5.157,5.157,0,0,1-1.981.509,2.8,2.8,0,0,1-1.578-.456,2.453,2.453,0,0,1-.737-1.981c0-.772.106-3.84.106-5.243h-.526c-.333,0-.614.035-.824.053a1.727,1.727,0,0,0,.052-.386A3.183,3.183,0,0,0,460.2,165a3.909,3.909,0,0,0,.6.07h.771c0-.491,0-1.192-.035-2a8.39,8.39,0,0,0,2-1.227Z"/><path class="a" d="M469.034,160.919c-.123,1.964-.123,3.208-.123,5.365a3.186,3.186,0,0,1,2.735-1.438,2.767,2.767,0,0,1,2.437,1.175,3.782,3.782,0,0,1,.4,2.139c0,.4-.035,1.35-.035,1.894,0,.964.052,2.6.105,3.3a5.461,5.461,0,0,0-1.087-.105c-.386,0-.93.088-1.175.105.1-.982.193-2.455.193-3.664a10.87,10.87,0,0,0-.123-2.49,1.46,1.46,0,0,0-1.508-1.087,1.708,1.708,0,0,0-1.736,1.139,6.072,6.072,0,0,0-.21,2.052c0,2.3,0,2.472.088,4.05a7.7,7.7,0,0,0-1.1-.105,10.559,10.559,0,0,0-1.069.105c.14-2.367.14-3.156.14-6.873l-.018-3.419c0-.7-.07-1.771-.122-2.7a6.031,6.031,0,0,0,1.192.1,4.646,4.646,0,0,0,1.052-.1Z"/><path class="a" d="M478.625,169.212c0,.649,0,3.314,2.788,3.314a3.685,3.685,0,0,0,2.489-1.1l.194.123a3.082,3.082,0,0,0-.141.368l-.157.754a4.847,4.847,0,0,1-2.946.9,4.74,4.74,0,0,1-3.174-1.158,4.643,4.643,0,0,1-1.174-3.349,3.925,3.925,0,0,1,4.067-4.243,3.5,3.5,0,0,1,3.3,1.6,5.518,5.518,0,0,1,.509,2.805Zm3.735-.859c0-.859,0-2.841-1.754-2.841-1.806,0-1.911,2.175-1.946,2.841Z"/><path class="a" d="M497.807,171.7a2.929,2.929,0,0,0-.35,1.227,5.6,5.6,0,0,1-2.578.632,4.179,4.179,0,0,1-4.365-4.279,4.28,4.28,0,0,1,4.593-4.488,6.225,6.225,0,0,1,2.683.613,4.63,4.63,0,0,0-.4,1.649h-.333A1.874,1.874,0,0,0,495.2,165.6a2.328,2.328,0,0,0-1.876,1.017,4.129,4.129,0,0,0-.544,2.367c0,1.718.579,3.594,2.613,3.594a2.887,2.887,0,0,0,2.139-1.034Z"/><path class="a" d="M499.421,166.775a13.376,13.376,0,0,0-.1-1.841,6.38,6.38,0,0,0,1.122.1,6.262,6.262,0,0,0,1.139-.1,31.384,31.384,0,0,0-.21,3.822,16.885,16.885,0,0,0,.123,2.35,1.557,1.557,0,0,0,1.543,1.139,1.769,1.769,0,0,0,1.648-1,6.229,6.229,0,0,0,.3-2.157c0-1.209,0-3.085-.123-4.155a6.528,6.528,0,0,0,1.017.1,7.661,7.661,0,0,0,1.193-.1c-.106,1.561-.176,3.121-.176,4.7a32.34,32.34,0,0,0,.14,3.717c-.49-.035-.789-.105-1.1-.105a7.292,7.292,0,0,0-1,.105,8.961,8.961,0,0,0,.07-1.42,3.391,3.391,0,0,1-2.84,1.613,2.715,2.715,0,0,1-2.455-1.385,3.925,3.925,0,0,1-.35-1.683C499.351,169.247,499.421,168,499.421,166.775Z"/><path class="a" d="M509.486,171.632c.035-.772.035-2.122.035-2.806,0-1.911-.035-2.349-.123-3.892a6.047,6.047,0,0,0,1.157.1,3.978,3.978,0,0,0,1-.1,10.936,10.936,0,0,0-.106,1.841c.474-.754,1.175-1.929,2.578-1.929a1.818,1.818,0,0,1,.456.053,3.941,3.941,0,0,0-.158,1.262,3.21,3.21,0,0,0,.087.754l-.122.088a1.955,1.955,0,0,0-1.035-.245,1.722,1.722,0,0,0-1.56.946,3.7,3.7,0,0,0-.21,1.736c0,1.122.052,2.823.157,3.91-.21-.017-.648-.105-1.017-.105-.3,0-.684.053-1.21.105Z"/><path class="a" d="M517.99,165.6c.719,2.28,1.332,3.928,2.034,5.769l.193-.509c.122-.333.578-1.6.666-1.858.123-.386.684-2.122.806-2.472.07-.211.369-1.193.439-1.6a2.549,2.549,0,0,0,.719.1,3.808,3.808,0,0,0,.841-.1l-1.017,2.279c-.491,1.1-.947,2.227-1.385,3.349a25.325,25.325,0,0,0-1.017,2.876,2.839,2.839,0,0,0-.736-.105,5.14,5.14,0,0,0-.894.105c-.246-.789-.491-1.6-.789-2.367-.386-.982-2.122-5.26-2.455-6.137a9.241,9.241,0,0,0,1.21.1,5.916,5.916,0,0,0,1.175-.1Z"/><path class="a" d="M526.442,169.212c0,.649,0,3.314,2.788,3.314a3.685,3.685,0,0,0,2.489-1.1l.193.123a3.261,3.261,0,0,0-.14.368l-.158.754a4.843,4.843,0,0,1-2.945.9,4.738,4.738,0,0,1-3.174-1.158,4.645,4.645,0,0,1-1.175-3.349,3.925,3.925,0,0,1,4.068-4.243,3.5,3.5,0,0,1,3.3,1.6,5.518,5.518,0,0,1,.509,2.805Zm3.734-.859c0-.859,0-2.841-1.753-2.841-1.806,0-1.911,2.175-1.946,2.841Z"/><path class="b" d="M458,122.718a44.254,44.254,0,1,0-44.254-44.254A44.34,44.34,0,0,0,458,122.718Z"/><path class="c" d="M455.861,44.376a1.9,1.9,0,1,1-1.9,1.9A1.9,1.9,0,0,1,455.861,44.376Z"/><path class="c" d="M489.992,46.89a45.39,45.39,0,1,0,13.294,32.1A45.249,45.249,0,0,0,489.992,46.89Zm3.826,53.849a3.431,3.431,0,0,1-4.094-3.053V81.753a8.617,8.617,0,0,0-2.4-6.459,8.906,8.906,0,0,0-6.564-2.365,10.063,10.063,0,0,0-5.635,1.635,16.134,16.134,0,0,0-4.6,5.012,7.361,7.361,0,0,0-2.858-4.871,9.425,9.425,0,0,0-5.894-1.776,10.074,10.074,0,0,0-5.529,1.553,12.061,12.061,0,0,0-2.129,1.771V66.712a17.939,17.939,0,0,0-.792-6.42c-2.215-5.388-9.084-7.941-15.069-7.951a14.65,14.65,0,0,0-1.686.1,27.033,27.033,0,0,0-3.159.593,16.082,16.082,0,0,0-6.053,2.835c-3.026,2.29-4.478,5.017-4.478,8.218a5.122,5.122,0,0,0,1.348,3.7,4.762,4.762,0,0,0,3.6,1.4,4.379,4.379,0,0,0,3.381-1.367,5.316,5.316,0,0,0,1.312-3.74,4.709,4.709,0,0,0-1.4-3.434,20.5,20.5,0,0,1-1.6-1.475c0-1.115.8-2.225,2.734-3.309a12.9,12.9,0,0,1,4.321-1.517c4.741-.731,9.113,1.63,9.113,7.469v10.9l.054,2.106c-.826-4.066-5.3-5.494-9.167-5.654q-.381-.015-.753-.015a15.98,15.98,0,0,0-11.282,4.556c-3.043,2.885-4.177,6.58-4.1,10.778a12.388,12.388,0,0,0,4.371,9.6A16.133,16.133,0,0,0,435.766,97.8c.271,0,.539-.006.8-.019a11,11,0,0,0,6.9-2.576,9.445,9.445,0,0,0,2.422-3.225v8.9h-4v1h13.823v-1h-3.894V97.352a10.323,10.323,0,0,0,2.923.4,9.363,9.363,0,0,0,4.863-1.178,10.527,10.527,0,0,0,4.161-4.531l-.9-.787a8.2,8.2,0,0,1-2.654,3.28c-1.809,1.3-4.19,1.133-5.287-1.028a12.36,12.36,0,0,1-.809-5.143V77.8a12.2,12.2,0,0,1,1.894-1.828,8.094,8.094,0,0,1,5.011-1.7,3.533,3.533,0,0,1,3,1.152c.576.777.859,2.2.859,4.294V100.88H460.95v1h13.893v-1h-4.106V81.2a17.56,17.56,0,0,1,4.365-5.271,7.938,7.938,0,0,1,4.87-1.658,3.574,3.574,0,0,1,3.034,1.152c.578.777.859,2.2.859,4.294V100.88H479.9v1h14.651A42.979,42.979,0,1,1,496,99.39,4.223,4.223,0,0,1,493.818,100.739Zm-51.295-21.9a3.165,3.165,0,0,0,3.051-1.763,4.856,4.856,0,0,0,.2-.774l.119,4.631v8.776a9.942,9.942,0,0,1-3.09,4.734,9.721,9.721,0,0,1-6.234,2.139c-.2.007-.4.01-.6.01a10.533,10.533,0,0,1-3.743-.59,7.147,7.147,0,0,1-2.687-1.827,7.475,7.475,0,0,1-1.643-3.051,22.7,22.7,0,0,1-.567-5.424l-.037-2.227-.036-2.049a21.518,21.518,0,0,1,.442-5.7,7.222,7.222,0,0,1,1.77-3.052,7.705,7.705,0,0,1,2.88-1.853,11.341,11.341,0,0,1,3.852-.563c.125,0,.25,0,.373,0a7.914,7.914,0,0,1,3.05.652c.833.38,1.92.839,1.2,1.637q-.213.195-.4.387a3.814,3.814,0,0,0-1.284,2.62A3.45,3.45,0,0,0,442.523,78.843Z"/><path class="d" d="M445.893,91.931v.042a9.763,9.763,0,0,1-2.425,3.227,11.321,11.321,0,0,1-7.709,2.6,16.15,16.15,0,0,1-10.976-3.71,12.389,12.389,0,0,1-4.374-9.6c-.071-4.2,1.063-7.9,4.108-10.781a16,16,0,0,1,11.29-4.558c4.17,0,9.423,1.437,10.01,6.164a4.229,4.229,0,0,1-.243,1.763,3.168,3.168,0,0,1-3.053,1.764,3.453,3.453,0,0,1-3.393-3.286,3.809,3.809,0,0,1,1.285-2.62c.124-.128.256-.258.4-.388.725-.8-.363-1.257-1.2-1.638a8.225,8.225,0,0,0-3.426-.657,11.349,11.349,0,0,0-3.854.564,7.7,7.7,0,0,0-2.883,1.854,7.214,7.214,0,0,0-1.771,3.052,21.491,21.491,0,0,0-.442,5.7l.035,2.05.038,2.228a22.616,22.616,0,0,0,.567,5.425,7.48,7.48,0,0,0,1.644,3.052A7.15,7.15,0,0,0,432.209,96a10.538,10.538,0,0,0,3.746.591,9.989,9.989,0,0,0,6.845-2.151,9.825,9.825,0,0,0,3-4.427l.1-.311Z"/></g></svg>